<svg xmlns="http://www.w3.org/2000/svg" width="1150" height="1150" viewBox="0 0 1150 1150"><defs><linearGradient id="a" x1="65.531%" x2="36.708%" y1="40.149%" y2="62.036%"><stop offset="0%" stop-color="#FFF"/><stop offset="100%" stop-color="#FFF" stop-opacity="0"/></linearGradient><linearGradient id="b" x1="72.049%" x2="-76.581%" y1="38.307%" y2="178.355%"><stop offset="0%" stop-color="#FFF"/><stop offset="100%" stop-color="#FFF" stop-opacity="0"/></linearGradient><linearGradient id="c" x1="65.511%" x2="46.833%" y1="28.12%" y2="59.673%"><stop offset="0%" stop-color="#FFF"/><stop offset="100%" stop-color="#FFF" stop-opacity="0"/></linearGradient><linearGradient id="d" x1="70.305%" x2="33.092%" y1="31.277%" y2="65.591%"><stop offset="0%" stop-color="#FFF"/><stop offset="100%" stop-color="#FFF" stop-opacity="0"/></linearGradient><linearGradient id="e" x1="44.151%" x2="54.871%" y1="1.529%" y2="97.01%"><stop offset="0%" stop-color="#FFF"/><stop offset="100%" stop-color="#FFF" stop-opacity="0"/></linearGradient><linearGradient id="f" x1="40.638%" x2="59.362%" y1="67.908%" y2="32.092%"><stop offset="0%" stop-color="#FFF" stop-opacity="0"/><stop offset="100%" stop-color="#FFF"/></linearGradient><linearGradient id="g" x1="59.357%" x2="40.638%" y1="32.103%" y2="67.908%"><stop offset="0%" stop-color="#FFF"/><stop offset="100%" stop-color="#FFF" stop-opacity="0"/></linearGradient><linearGradient id="h" x1="61.729%" x2="20.576%" y1="30.267%" y2="77.347%"><stop offset="0%" stop-color="#FFF"/><stop offset="100%" stop-color="#FFF" stop-opacity="0"/></linearGradient><linearGradient id="i" x1="63.447%" x2="29.8%" y1="35.509%" y2="71.738%"><stop offset="0%" stop-color="#FFF"/><stop offset="100%" stop-color="#FFF" stop-opacity="0"/></linearGradient></defs><g fill="none" fill-rule="evenodd"><rect width="1150" height="1150" fill="#003ECB"/><g transform="translate(193 230)"><path fill="url(#a)" fill-rule="nonzero" d="M507.3,105.6 C509.4,106.8 511.3,109.7 511.6,112.3 L558.3,498.6 C558.7,501.9 556.7,503.4 554,501.9 L299.9,355.2 C297.3,353.7 295.2,349.8 295.6,347 L342.4,14.7 C342.7,12.4 344.5,11.7 346.7,12.9 L507.3,105.6 Z" opacity=".07"/><path fill="url(#b)" fill-rule="nonzero" d="M441.6,111.1 C441.6,70.5 417.8,23.8 388.5,6.8 C359.2,-10.1 335.4,9.1 335.4,49.7 L346.9,56.3 L346.9,56.2 C346.9,24.3 365.6,9.2 388.6,22.5 C411.6,35.8 430.3,72.5 430.3,104.4 L430.3,104.5 L441.6,111.1 Z" opacity=".4"/><path fill="url(#c)" fill-rule="nonzero" d="M473.1,133.6 C472.8,131 471,128.1 468.8,126.9 L308.1,34.1 C306,32.9 304.1,33.6 303.8,35.9 L257,368.2 C256.6,371 258.6,374.9 261.3,376.4 L515.5,523.1 C518.1,524.6 520.2,523.1 519.8,519.8 L473.1,133.6 Z" opacity=".4"/><polygon fill="url(#d)" fill-rule="nonzero" points="329.5 184.4 31.9 12.6 32 167.7 303.3 324.3 329.6 363.2" opacity=".3"/><polygon fill="#F2994A" points=".2 73.1 .2 31 112.5 95.8 112.5 137.9"/><polygon fill="#FFF" fill-rule="nonzero" points="253 178 187.8 140.4 187.8 154 253 191.6" opacity=".15"/><polygon fill="#FFF" fill-rule="nonzero" points="253 205.2 127.3 132.7 127.3 146.3 253 218.9" opacity=".15"/><polygon fill="#FFF" fill-rule="nonzero" points="253 232.5 100.7 144.6 100.7 158.2 253 246.1" opacity=".15"/><path fill="#F2994A" d="M269,201.4 C269,214.2 276.6,228.9 285.9,234.3 C295.2,239.7 302.8,233.7 302.8,220.9 C302.8,208.1 295.2,193.4 285.9,188 C276.6,182.6 269,188.6 269,201.4 Z"/><polygon fill="url(#e)" fill-rule="nonzero" points="364.2 362.3 661.7 534 661.8 689.1 390.5 532.5 364.3 541.1" opacity=".3"/><polygon fill="#F2C94C" points="575.2 561.4 575.2 519.3 687.5 584.1 687.5 626.2"/><polygon fill="#FFF" fill-rule="nonzero" points="440.7 444.2 505.9 481.8 505.9 495.4 440.7 457.8" opacity=".15"/><polygon fill="#FFF" fill-rule="nonzero" points="440.7 471.5 558.4 539.4 558.4 553 440.7 485.1" opacity=".15"/><polygon fill="#FFF" fill-rule="nonzero" points="440.7 498.7 593 586.6 593 600.2 440.7 512.3" opacity=".15"/><path fill="#F2C94C" d="M424.6,449.1 C424.6,461.9 417,467.9 407.7,462.5 C398.4,457.1 390.8,442.4 390.8,429.6 C390.8,416.8 398.4,410.8 407.7,416.2 C417.1,421.6 424.6,436.4 424.6,449.1 Z"/><polygon fill="url(#f)" fill-rule="nonzero" points="52.2 321.7 256 439.3 256 331.9 52.2 214.3" opacity=".2"/><path fill="#F2994A" d="M214.5,341.3 C214.5,332.4 219.7,328.3 226.1,331.9 C232.5,335.6 237.7,345.8 237.7,354.6 C237.7,363.5 232.5,367.6 226.1,364 C219.7,360.3 214.5,350.2 214.5,341.3 Z"/><polygon fill="#FFF" fill-rule="nonzero" points="204.1 369.8 73.1 294.2 73.1 280.6 204.1 356.2" opacity=".15"/><polygon fill="#FFF" fill-rule="nonzero" points="203.7 341.9 144.1 307.5 144.1 293.9 203.7 328.3" opacity=".15"/><polygon fill="url(#g)" fill-rule="nonzero" points="763.9 464.9 560.2 347.3 560.2 454.7 764 572.3" opacity=".2"/><polygon fill="#FFF" fill-rule="nonzero" points="612 403.8 662 432.7 662 446.3 612 417.4" opacity=".15"/><polygon fill="#FFF" fill-rule="nonzero" points="612.4 430.7 719.9 492.8 719.9 506.4 612.4 444.3" opacity=".15"/><path fill="#F2C94C" d="M601.6,405.7 C601.6,414.6 596.4,418.7 590,415.1 C583.6,411.4 578.4,401.2 578.4,392.4 C578.4,383.5 583.6,379.4 590,383 C596.4,386.6 601.6,396.8 601.6,405.7 Z"/><path fill="url(#h)" fill-rule="nonzero" d="M243.9,587.3 C176.3,500.5 225.2,469.3 243.9,520.1 C262.7,491 311.6,578.6 243.9,587.3 Z" opacity=".2"/><path fill="url(#i)" fill-rule="nonzero" d="M621,183.4 C627,186.8 631.8,195.2 631.8,202.1 L631.8,232.6 L652,244.2 C658,247.6 662.8,256 662.8,263 C662.8,269.9 658,272.7 652,269.3 L631.8,257.7 L631.8,288.2 C631.8,295.1 627,297.9 621,294.5 C615,291.1 610.2,282.7 610.2,275.7 L610.2,245.2 L590,233.5 C584,230.1 579.2,221.7 579.2,214.8 C579.2,207.9 584,205.1 590,208.5 L610.2,220.1 L610.2,189.6 C610.2,182.7 615,179.9 621,183.4 Z" opacity=".2"/></g></g></svg>